<svg width="310" height="422" viewBox="0 0 310 422" fill="none" xmlns="http://www.w3.org/2000/svg">
<path fill-rule="evenodd" clip-rule="evenodd" d="M144.581 61.4901C139.973 56.0814 136.854 49.4529 137.376 42.0255C138.877 20.625 168.667 25.3328 174.462 36.1339C180.257 46.9351 179.568 74.333 172.079 76.2635C169.092 77.0333 162.73 75.1475 156.254 71.2443L160.319 100H136.319L144.581 61.4901Z" fill="#915B3C"/>
<path fill-rule="evenodd" clip-rule="evenodd" d="M164.982 24.37C161.703 23.37 156.942 23.0308 154.94 23.2603C156.079 20.5308 156.531 17.4899 156.162 14.5291C155.804 11.6521 154.519 9.20237 153.33 6.63538C152.782 5.45217 152.16 4.2754 151.234 3.37038C150.291 2.44834 149.097 1.83973 147.845 1.54937C146.564 1.25215 145.224 1.2769 143.94 1.54663C143.373 1.66593 142.863 1.9255 142.307 2.06979C141.736 2.21763 141.46 1.86077 141.046 1.50213C140.049 0.637974 138.587 0.211378 137.325 0.0587004C135.909 -0.112518 134.44 0.101021 133.09 0.566391C131.776 1.01943 130.514 1.75509 129.563 2.82681C129.14 3.30387 128.756 3.84687 128.507 4.44638C128.405 4.6924 128.388 4.83815 128.142 4.92827C127.915 5.01171 127.649 5.01412 127.415 5.09352C125.149 5.86095 123.212 7.61166 122.157 9.85951C121.542 11.1709 121.25 13.4798 121.33 16.0677C121.41 18.6555 123.747 25.4081 125.932 27.8711C127.883 30.0695 130.75 31.5203 133.518 32.1553C131.681 34.2548 130.458 36.8784 129.554 39.5467C128.572 42.445 127.964 45.4566 127.74 48.5251C127.527 51.4405 127.507 54.5235 128.19 57.3767C128.83 60.0448 130.197 62.2337 132.48 63.6223C133.525 64.2584 134.65 64.7363 135.782 65.173C136.897 65.6034 138.015 66.0219 139.183 66.2634C141.394 66.7203 143.941 66.6418 145.644 64.8822C146.257 64.2479 146.932 63.4508 147.38 62.6759C147.541 62.3972 147.638 62.215 147.443 61.9426C147.208 61.6164 146.829 61.3664 146.528 61.1112C144.812 59.6561 143.749 57.7135 143.481 55.4049C143.21 53.0626 143.839 50.0393 146.116 49.017C148.927 47.7552 152.023 49.2036 154.522 50.5537C155.583 46.806 157.764 43.4315 161.182 41.7124C164.964 39.8105 169.304 39.5879 173.19 37.9561C174.203 37.5309 175.234 37.0482 175.98 36.1818C176.291 35.8197 176.657 35.35 176.781 34.871C176.945 34.2419 176.539 33.7145 176.226 33.2241C174.564 30.6236 168.262 25.37 164.982 24.37Z" fill="#191847"/>
<path fill-rule="evenodd" clip-rule="evenodd" d="M130.319 183L204.625 307.227L260.334 412.25H272.333L178.992 183L130.319 183Z" fill="#784931"/>
<path fill-rule="evenodd" clip-rule="evenodd" d="M252.997 407.402C251.878 410.388 251.319 412.623 251.319 414.106C251.319 415.909 251.619 418.54 252.22 422C254.312 422 273.113 422 308.622 422C310.088 417.154 309.241 414.539 306.084 414.152C302.926 413.766 300.303 413.417 298.214 413.106L271.999 401.419C271.494 401.194 270.903 401.421 270.678 401.925C270.674 401.934 270.671 401.942 270.667 401.951L268.982 406.039C266.059 407.403 263.683 408.085 261.855 408.085C260.371 408.085 258.32 407.485 255.703 406.285L255.703 406.285C254.699 405.825 253.512 406.266 253.052 407.27C253.032 407.313 253.014 407.357 252.997 407.402Z" fill="#E4E4E4"/>
<path fill-rule="evenodd" clip-rule="evenodd" d="M244.862 395.433L268.002 388.433C257.864 358.125 245.438 324.772 230.724 288.374C216.011 251.977 200.209 216.852 183.319 183H117.963C136.741 225.821 156.648 264.729 177.685 299.725C198.721 334.721 221.114 366.624 244.862 395.433Z" fill="#DB2721"/>
<path fill-rule="evenodd" clip-rule="evenodd" d="M125.435 183C118.422 226.654 104.896 282.427 103.619 284.149C102.768 285.296 72.1314 295.562 11.7087 314.947L14.3006 325.528C86.3546 315.132 124.321 307.066 128.2 301.331C134.018 292.728 163.067 224.763 174.319 183H125.435Z" fill="#915B3C"/>
<path fill-rule="evenodd" clip-rule="evenodd" d="M32.9483 305.8L37.5137 322.842C91.4059 327.569 124.427 324.153 136.577 312.596C148.726 301.039 162.573 257.84 178.118 183H115.797C105.948 244.284 100.442 276.212 99.2789 278.785C98.1155 281.357 76.0053 290.363 32.9483 305.8Z" fill="#FF4133"/>
<path fill-rule="evenodd" clip-rule="evenodd" d="M14.6677 310.539C11.5323 309.956 9.23455 309.793 7.77439 310.05C5.9985 310.363 3.45921 311.116 0.156498 312.309C0.519759 314.369 3.78445 332.884 9.95057 367.854C14.977 368.456 17.4062 367.168 17.2384 363.991C17.0705 360.814 16.9585 358.17 16.9024 356.059L23.8595 328.213C23.9934 327.677 23.6675 327.134 23.1317 327C23.1225 326.998 23.1133 326.996 23.1041 326.994L18.786 326.044C16.9351 323.402 15.851 321.181 15.5336 319.381C15.2758 317.919 15.5103 315.795 16.2372 313.01L16.2372 313.01C16.5161 311.941 15.8758 310.849 14.8071 310.57C14.761 310.558 14.7145 310.548 14.6677 310.539Z" fill="#E4E4E4"/>
<path fill-rule="evenodd" clip-rule="evenodd" d="M180.957 120.7L215.667 101.69C221.439 94.8355 227.126 89.5122 232.728 85.7198C234.44 85.0052 237.433 84.5726 234.634 89.5415C231.834 94.5104 229.113 99.8628 230.539 101.394C231.965 102.924 235.522 100.786 237.223 103.329C238.358 105.025 232.282 107.704 218.995 111.365L193.775 134.458L180.957 120.7ZM235.319 136.74L250.565 128.364C252.705 120.224 255.262 116.128 258.237 116.077C260.523 115.014 256.542 125.3 260.875 124.408C265.208 123.516 275.783 115.651 277.605 117.248C280.301 119.61 277.897 126.864 275.065 130.473C269.772 137.218 265.389 139.524 254.557 142.544C248.894 144.123 242.77 147.289 236.187 152.04L235.319 136.74Z" fill="#915B3C"/>
<path fill-rule="evenodd" clip-rule="evenodd" d="M164.053 116.465C176.21 116.337 192.423 113.769 209.721 102.789L216.515 117.939C204.583 129.78 187.805 139.51 173.135 139.098C161.574 138.773 155.665 124.789 164.053 116.465Z" fill="#2026A2"/>
<path fill-rule="evenodd" clip-rule="evenodd" d="M180.423 140.761C193.33 143.98 214.974 140.184 245.355 129.373C252.89 144.964 256.374 156.078 255.805 162.717C229.743 176.331 207.405 182.401 189.002 182.802C189.587 193.721 188.258 204.112 183.793 213.606C174.613 233.124 120.864 215.048 102.792 218.606C91.4742 181.851 113.357 166.914 113.374 143.397C113.394 117.642 134.073 78 137.116 78H164.863C166.393 97.669 174.099 119.346 180.423 140.761Z" fill="#1F28CF"/>
</svg>
